<svg width="211" height="131" viewBox="0 0 211 131" fill="none" xmlns="http://www.w3.org/2000/svg">
<circle cx="201.333" cy="121.331" r="9" transform="rotate(-180 201.333 121.331)" fill="white" fill-opacity="0.19"/>
<circle cx="9.33301" cy="121.331" r="9" transform="rotate(-180 9.33301 121.331)" fill="white" fill-opacity="0.19"/>
<circle cx="105.333" cy="121.331" r="9" transform="rotate(-180 105.333 121.331)" fill="white" fill-opacity="0.19"/>
<circle cx="57.333" cy="121.331" r="9" transform="rotate(-180 57.333 121.331)" fill="white" fill-opacity="0.19"/>
<circle cx="153.333" cy="121.331" r="9" transform="rotate(-180 153.333 121.331)" fill="white" fill-opacity="0.19"/>
<circle cx="9.33301" cy="93.3313" r="9" transform="rotate(-180 9.33301 93.3313)" fill="white" fill-opacity="0.19"/>
<circle cx="105.333" cy="93.3313" r="9" transform="rotate(-180 105.333 93.3313)" fill="white" fill-opacity="0.19"/>
<circle cx="57.333" cy="93.3313" r="9" transform="rotate(-180 57.333 93.3313)" fill="white" fill-opacity="0.19"/>
<circle cx="153.333" cy="93.3313" r="9" transform="rotate(-180 153.333 93.3313)" fill="white" fill-opacity="0.19"/>
<circle cx="9.33301" cy="65.3313" r="9" transform="rotate(-180 9.33301 65.3313)" fill="white" fill-opacity="0.19"/>
<circle cx="105.333" cy="65.3313" r="9" transform="rotate(-180 105.333 65.3313)" fill="white" fill-opacity="0.19"/>
<circle cx="57.333" cy="65.3313" r="9" transform="rotate(-180 57.333 65.3313)" fill="white" fill-opacity="0.19"/>
<circle cx="9.33301" cy="37.3313" r="9" transform="rotate(-180 9.33301 37.3313)" fill="white" fill-opacity="0.19"/>
<circle cx="9.33301" cy="9.3313" r="9" transform="rotate(-180 9.33301 9.3313)" fill="white" fill-opacity="0.19"/>
<circle cx="57.333" cy="37.3313" r="9" transform="rotate(-180 57.333 37.3313)" fill="white" fill-opacity="0.19"/>
</svg>
